<svg xmlns="http://www.w3.org/2000/svg" width="151.207" height="151.207" viewBox="0 0 151.207 151.207">
  <g id="Group_34" data-name="Group 34" transform="translate(-3297 -3083)">
    <g id="Path_5" data-name="Path 5" transform="translate(3297 3083)" fill="none">
      <path d="M75.6,0A75.6,75.6,0,1,1,0,75.6,75.444,75.444,0,0,1,75.6,0Z" stroke="none"/>
      <path d="M 75.6036376953125 4 C 65.93545532226562 4 56.55857086181641 5.89263916015625 47.73349761962891 9.625320434570312 C 43.49154663085938 11.41952514648438 39.39988708496094 13.64045715332031 35.57215881347656 16.22640991210938 C 31.77975463867188 18.78849792480469 28.21343231201172 21.73101806640625 24.97222900390625 24.97222900390625 C 21.73101806640625 28.21343231201172 18.78849792480469 31.77975463867188 16.22640991210938 35.57215881347656 C 13.64045715332031 39.39988708496094 11.41952514648438 43.49154663085938 9.625320434570312 47.73349761962891 C 5.89263916015625 56.55857086181641 4 65.93545532226562 4 75.6036376953125 C 4 85.27184295654297 5.89263916015625 94.64870452880859 9.625320434570312 103.4737701416016 C 11.41952514648438 107.7157287597656 13.64045715332031 111.8074111938477 16.22640991210938 115.635139465332 C 18.78849792480469 119.4275207519531 21.73101806640625 122.9938659667969 24.97222900390625 126.2350692749023 C 28.21343231201172 129.4762725830078 31.77975463867188 132.4187774658203 35.57215881347656 134.9808654785156 C 39.39988708496094 137.5668487548828 43.49154663085938 139.7877502441406 47.73349761962891 141.5819549560547 C 56.55857086181641 145.3146362304688 65.93545532226562 147.207275390625 75.6036376953125 147.207275390625 C 85.27184295654297 147.207275390625 94.64870452880859 145.3146362304688 103.4737701416016 141.5819549560547 C 107.7157287597656 139.7877502441406 111.8074111938477 137.5668487548828 115.635139465332 134.9808654785156 C 119.4275207519531 132.4187774658203 122.9938659667969 129.4762725830078 126.2350692749023 126.2350692749023 C 129.4762725830078 122.9938659667969 132.4187774658203 119.4275207519531 134.9808654785156 115.635139465332 C 137.5668487548828 111.8074111938477 139.7877502441406 107.7157287597656 141.5819549560547 103.4737701416016 C 145.3146362304688 94.64870452880859 147.207275390625 85.27184295654297 147.207275390625 75.6036376953125 C 147.207275390625 66.8035888671875 145.6311340332031 58.21227264404297 142.5226593017578 50.06834411621094 C 139.5204772949219 42.20288848876953 135.1840515136719 34.98474884033203 129.6337890625 28.61445617675781 C 126.3479995727539 24.84316253662109 122.6597518920898 21.40597534179688 118.671501159668 18.3983154296875 C 114.6542282104492 15.36878967285156 110.3125228881836 12.76025390625 105.7669982910156 10.64515686035156 C 101.1396789550781 8.491973876953125 96.26979827880859 6.83612060546875 91.29258728027344 5.723526000976562 C 86.17642974853516 4.57989501953125 80.89791107177734 4 75.6036376953125 4 M 75.6036376953125 0 C 98.35981750488281 0 118.767822265625 10.05384826660156 132.6496887207031 25.98681640625 C 144.1995849609375 39.24327087402344 151.207275390625 56.60509490966797 151.207275390625 75.6036376953125 C 151.207275390625 117.3583831787109 117.3583831787109 151.207275390625 75.6036376953125 151.207275390625 C 33.84890747070312 151.207275390625 0 117.3583831787109 0 75.6036376953125 C 0 33.84890747070312 33.84890747070312 0 75.6036376953125 0 Z" stroke="none" fill="#153cd6"/>
    </g>
    <text id="DOKUMENTATION" transform="translate(3311.997 3163.875)" fill="#153cd6" font-size="14" font-family="Raleway-SemiBold, Raleway SemiBold" font-weight="600"><tspan x="0" y="0">DOKUMENTATION</tspan></text>
  </g>
</svg>
