<svg xmlns="http://www.w3.org/2000/svg" width="450.654" height="450.654" viewBox="0 0 450.654 450.654">
  <g id="Group_34" data-name="Group 34" transform="translate(-3297 -3083)">
    <g id="Path_5" data-name="Path 5" transform="translate(3297 3083)" fill="none">
      <path d="M225.327,0A225.319,225.319,0,0,1,450.654,225.327c0,124.445-100.882,225.327-225.327,225.327S0,349.772,0,225.327,100.882,0,225.327,0Z" stroke="none"/>
      <path d="M 225.3268890380859 4 C 210.3075408935547 4 195.2987670898438 5.51287841796875 180.7175903320312 8.49664306640625 C 166.5089416503906 11.40411376953125 152.532958984375 15.74252319335938 139.1777038574219 21.39129638671875 C 126.0640563964844 26.93795776367188 113.4155883789062 33.8033447265625 101.5837097167969 41.79678344726562 C 89.86325073242188 49.71499633789062 78.84164428710938 58.80865478515625 68.8251953125 68.8251953125 C 58.80865478515625 78.84164428710938 49.71499633789062 89.86325073242188 41.79678344726562 101.5837097167969 C 33.8033447265625 113.4155883789062 26.93795776367188 126.0640563964844 21.39129638671875 139.1777038574219 C 15.74252319335938 152.532958984375 11.40411376953125 166.5089416503906 8.49664306640625 180.7175903320312 C 5.51287841796875 195.2987670898438 4 210.3075408935547 4 225.3268890380859 C 4 240.3462371826172 5.51287841796875 255.3550109863281 8.49664306640625 269.9362487792969 C 11.40411376953125 284.1448364257812 15.74252319335938 298.1209106445312 21.39129638671875 311.47607421875 C 26.93795776367188 324.5897827148438 33.8033447265625 337.2381896972656 41.79678344726562 349.070068359375 C 49.71499633789062 360.7905883789062 58.80865478515625 371.8121948242188 68.8251953125 381.8286437988281 C 78.84164428710938 391.8451232910156 89.86325073242188 400.9387817382812 101.5837097167969 408.8569946289062 C 113.4155883789062 416.8504638671875 126.0640563964844 423.7158203125 139.1777038574219 429.2624816894531 C 152.532958984375 434.9112548828125 166.5089416503906 439.2496643066406 180.7175903320312 442.1571350097656 C 195.2987670898438 445.1408996582031 210.3075408935547 446.6537780761719 225.3268890380859 446.6537780761719 C 240.3462371826172 446.6537780761719 255.3550109863281 445.1408996582031 269.9362487792969 442.1571350097656 C 284.1448364257812 439.2496643066406 298.1209106445312 434.9112548828125 311.47607421875 429.2624816894531 C 324.5897827148438 423.7158203125 337.2381896972656 416.8504638671875 349.070068359375 408.8569946289062 C 360.7905883789062 400.9387817382812 371.8121948242188 391.8451232910156 381.8286437988281 381.8286437988281 C 391.8451232910156 371.8121948242188 400.9387817382812 360.7905883789062 408.8569946289062 349.070068359375 C 416.8504638671875 337.2381896972656 423.7158203125 324.5897827148438 429.2624816894531 311.47607421875 C 434.9112548828125 298.1209106445312 439.2496643066406 284.1448364257812 442.1571350097656 269.9362487792969 C 445.1408996582031 255.3550109863281 446.6537780761719 240.3462371826172 446.6537780761719 225.3268890380859 C 446.6537780761719 211.6487121582031 445.3975219726562 197.9530029296875 442.9198913574219 184.6202392578125 C 440.5020141601562 171.60888671875 436.8855895996094 158.7488403320312 432.1711120605469 146.3974304199219 C 427.5415954589844 134.2684631347656 421.7921752929688 122.4682922363281 415.0826416015625 111.3246459960938 C 408.4464111328125 100.3028869628906 400.7911376953125 89.79000854492188 392.329345703125 80.0780029296875 C 382.1761779785156 68.42459106445312 370.779052734375 57.8033447265625 358.45458984375 48.50918579101562 C 346.0380554199219 39.14553833007812 332.6178894042969 31.0826416015625 318.5668334960938 24.54446411132812 C 304.2599487304688 17.88723754882812 289.202880859375 12.76754760742188 273.8139038085938 9.327545166015625 C 257.9994812011719 5.79241943359375 241.6860656738281 4 225.3268890380859 4 M 225.3268890380859 0 C 293.1487731933594 0 353.9721069335938 29.96417236328125 395.3452453613281 77.45034790039062 C 429.768310546875 116.95947265625 450.6537780761719 168.7041931152344 450.6537780761719 225.3268890380859 C 450.6537780761719 349.7715454101562 349.7715454101562 450.6537780761719 225.3268890380859 450.6537780761719 C 100.8822937011719 450.6537780761719 0 349.7715454101562 0 225.3268890380859 C 0 100.8822937011719 100.8822937011719 0 225.3268890380859 0 Z" stroke="none" fill="#153cd6"/>
    </g>
    <text id="DOKUMENTATION" transform="translate(3326.796 3324.313)" fill="#153cd6" font-size="45" font-family="Raleway-SemiBold, Raleway SemiBold" font-weight="600"><tspan x="0" y="0">DOKUMENTATION</tspan></text>
  </g>
</svg>
